{
	"asset":{
		"generator":"Khronos glTF Blender I/O v4.2.60",
		"version":"2.0"
	},
	"scene":0,
	"scenes":[
		{
			"extras":{
				"COLLISION_NONE":1.0,
				"uuid":"d8866e04-3ae7-48fc-ba26-0d54d9696cb4",
				"assets reported":{}
			},
			"name":"Scene",
			"nodes":[
				0,
				1,
				2,
				3
			]
		}
	],
	"nodes":[
		{
			"extras":{
				"COLLISION_NONE":1.0
			},
			"mesh":0,
			"name":"Hall-noised",
			"rotation":[
				0.7071068286895752,
				0,
				0,
				0.7071068286895752
			]
		},
		{
			"mesh":1,
			"name":"Cube.002",
			"rotation":[
				0.7071068286895752,
				0,
				0,
				0.7071068286895752
			]
		},
		{
			"mesh":2,
			"name":"Cube.003",
			"rotation":[
				0.7071068286895752,
				0,
				0,
				0.7071068286895752
			]
		},
		{
			"mesh":3,
			"name":"Cube.004",
			"rotation":[
				0.7071068286895752,
				0,
				0,
				0.7071068286895752
			]
		}
	],
	"materials":[
		{
			"alphaMode":"BLEND",
			"doubleSided":true,
			"name":"Material.002",
			"pbrMetallicRoughness":{
				"baseColorTexture":{
					"index":0
				},
				"metallicFactor":0,
				"roughnessFactor":0.5
			}
		},
		{
			"doubleSided":true,
			"name":"Material.001",
			"pbrMetallicRoughness":{
				"metallicFactor":0,
				"roughnessFactor":0.5
			}
		}
	],
	"meshes":[
		{
			"name":"Cube.005",
			"primitives":[
				{
					"attributes":{
						"POSITION":0,
						"NORMAL":1,
						"TEXCOORD_0":2,
						"COLOR_0":3,
						"COLOR_1":4
					},
					"indices":5,
					"material":0
				}
			]
		},
		{
			"name":"Cube.001",
			"primitives":[
				{
					"attributes":{
						"POSITION":6,
						"NORMAL":7,
						"TEXCOORD_0":8
					},
					"indices":9,
					"material":1
				}
			]
		},
		{
			"name":"Cube.007",
			"primitives":[
				{
					"attributes":{
						"POSITION":10,
						"NORMAL":11,
						"TEXCOORD_0":12
					},
					"indices":13,
					"material":1
				}
			]
		},
		{
			"name":"Cube.008",
			"primitives":[
				{
					"attributes":{
						"POSITION":14,
						"NORMAL":15,
						"TEXCOORD_0":16
					},
					"indices":17,
					"material":1
				}
			]
		}
	],
	"textures":[
		{
			"sampler":0,
			"source":0
		}
	],
	"images":[
		{
			"mimeType":"image/png",
			"name":"BlueNoise470",
			"uri":"BlueNoise470.png"
		}
	],
	"accessors":[
		{
			"bufferView":0,
			"componentType":5126,
			"count":129713,
			"max":[
				10.215405464172363,
				11.23729419708252,
				4.900677680969238
			],
			"min":[
				-10.19727611541748,
				-11.33603572845459,
				-23.428281784057617
			],
			"type":"VEC3"
		},
		{
			"bufferView":1,
			"componentType":5126,
			"count":129713,
			"type":"VEC3"
		},
		{
			"bufferView":2,
			"componentType":5126,
			"count":129713,
			"type":"VEC2"
		},
		{
			"bufferView":3,
			"componentType":5121,
			"count":129713,
			"normalized":true,
			"type":"VEC4"
		},
		{
			"bufferView":4,
			"componentType":5126,
			"count":129713,
			"type":"VEC3"
		},
		{
			"bufferView":5,
			"componentType":5125,
			"count":775110,
			"type":"SCALAR"
		},
		{
			"bufferView":6,
			"componentType":5126,
			"count":84,
			"max":[
				39.30925369262695,
				32.343589782714844,
				-3.819135904312134
			],
			"min":[
				13.552371978759766,
				6.586709976196289,
				-8.335037231445312
			],
			"type":"VEC3"
		},
		{
			"bufferView":7,
			"componentType":5126,
			"count":84,
			"type":"VEC3"
		},
		{
			"bufferView":8,
			"componentType":5126,
			"count":84,
			"type":"VEC2"
		},
		{
			"bufferView":9,
			"componentType":5123,
			"count":156,
			"type":"SCALAR"
		},
		{
			"bufferView":10,
			"componentType":5126,
			"count":84,
			"max":[
				37.76543426513672,
				30.380258560180664,
				7.383887767791748
			],
			"min":[
				16.012130737304688,
				10.010220527648926,
				2.8679869174957275
			],
			"type":"VEC3"
		},
		{
			"bufferView":11,
			"componentType":5126,
			"count":84,
			"type":"VEC3"
		},
		{
			"bufferView":12,
			"componentType":5126,
			"count":84,
			"type":"VEC2"
		},
		{
			"bufferView":13,
			"componentType":5123,
			"count":156,
			"type":"SCALAR"
		},
		{
			"bufferView":14,
			"componentType":5126,
			"count":8249,
			"max":[
				38.456424713134766,
				33.657535552978516,
				11.847230911254883
			],
			"min":[
				-24.33362579345703,
				6.4148850440979,
				-21.10124397277832
			],
			"type":"VEC3"
		},
		{
			"bufferView":15,
			"componentType":5126,
			"count":8249,
			"type":"VEC3"
		},
		{
			"bufferView":16,
			"componentType":5126,
			"count":8249,
			"type":"VEC2"
		},
		{
			"bufferView":17,
			"componentType":5123,
			"count":12762,
			"type":"SCALAR"
		}
	],
	"bufferViews":[
		{
			"buffer":0,
			"byteLength":1556556,
			"byteOffset":0,
			"target":34962
		},
		{
			"buffer":0,
			"byteLength":1556556,
			"byteOffset":1556556,
			"target":34962
		},
		{
			"buffer":0,
			"byteLength":1037704,
			"byteOffset":3113112,
			"target":34962
		},
		{
			"buffer":0,
			"byteLength":518852,
			"byteOffset":4150816,
			"target":34962
		},
		{
			"buffer":0,
			"byteLength":1556556,
			"byteOffset":4669668,
			"target":34962
		},
		{
			"buffer":0,
			"byteLength":3100440,
			"byteOffset":6226224,
			"target":34963
		},
		{
			"buffer":0,
			"byteLength":1008,
			"byteOffset":9326664,
			"target":34962
		},
		{
			"buffer":0,
			"byteLength":1008,
			"byteOffset":9327672,
			"target":34962
		},
		{
			"buffer":0,
			"byteLength":672,
			"byteOffset":9328680,
			"target":34962
		},
		{
			"buffer":0,
			"byteLength":312,
			"byteOffset":9329352,
			"target":34963
		},
		{
			"buffer":0,
			"byteLength":1008,
			"byteOffset":9329664,
			"target":34962
		},
		{
			"buffer":0,
			"byteLength":1008,
			"byteOffset":9330672,
			"target":34962
		},
		{
			"buffer":0,
			"byteLength":672,
			"byteOffset":9331680,
			"target":34962
		},
		{
			"buffer":0,
			"byteLength":312,
			"byteOffset":9332352,
			"target":34963
		},
		{
			"buffer":0,
			"byteLength":98988,
			"byteOffset":9332664,
			"target":34962
		},
		{
			"buffer":0,
			"byteLength":98988,
			"byteOffset":9431652,
			"target":34962
		},
		{
			"buffer":0,
			"byteLength":65992,
			"byteOffset":9530640,
			"target":34962
		},
		{
			"buffer":0,
			"byteLength":25524,
			"byteOffset":9596632,
			"target":34963
		}
	],
	"samplers":[
		{
			"magFilter":9729,
			"minFilter":9987
		}
	],
	"buffers":[
		{
			"byteLength":9622156,
			"uri":"lvl_station-noised2.bin"
		}
	]
}
