# Blender 4.2.1 LTS
# www.blender.org
mtllib 1tri.mtl
g Cone_Cone
v 0.000000 0.776742 -2.819416
v 2.441686 0.776742 1.409708
v -2.441686 0.776742 1.409708
v 0.000000 3.890102 0.000000
vn 0.7889 0.4125 -0.4555
vn -0.0000 -1.0000 -0.0000
vn -0.0000 0.4125 0.9110
vn -0.7889 0.4125 -0.4555
vt 0.250000 0.490000
vt 0.250000 0.250000
vt 0.457846 0.130000
vt 0.750000 0.490000
vt 0.957846 0.130000
vt 0.542154 0.130000
vt 0.042154 0.130000
s 0
g off
f 1/1/1 4/2/1 2/3/1
f 1/4/2 2/5/2 3/6/2
f 2/3/3 4/2/3 3/7/3
f 3/7/4 4/2/4 1/1/4
