{
	"asset":{
		"generator":"Khronos glTF Blender I/O v4.2.60",
		"version":"2.0"
	},
	"scene":0,
	"scenes":[
		{
			"name":"Scene",
			"nodes":[
				0
			]
		}
	],
	"nodes":[
		{
			"mesh":0,
			"name":"Torus",
			"scale":[
				24.26181983947754,
				24.26181983947754,
				24.26181983947754
			],
			"translation":[
				2.6391408443450928,
				-9.8849604910356e-06,
				-23.966712951660156
			]
		}
	],
	"meshes":[
		{
			"name":"Torus",
			"primitives":[
				{
					"attributes":{
						"POSITION":0,
						"NORMAL":1,
						"TEXCOORD_0":2
					},
					"indices":3
				}
			]
		}
	],
	"accessors":[
		{
			"bufferView":0,
			"componentType":5126,
			"count":2296,
			"max":[
				1.25,
				0.25,
				1.25
			],
			"min":[
				-1.25,
				-0.25,
				-1.25
			],
			"type":"VEC3"
		},
		{
			"bufferView":1,
			"componentType":5126,
			"count":2296,
			"type":"VEC3"
		},
		{
			"bufferView":2,
			"componentType":5126,
			"count":2296,
			"type":"VEC2"
		},
		{
			"bufferView":3,
			"componentType":5123,
			"count":3444,
			"type":"SCALAR"
		}
	],
	"bufferViews":[
		{
			"buffer":0,
			"byteLength":27552,
			"byteOffset":0,
			"target":34962
		},
		{
			"buffer":0,
			"byteLength":27552,
			"byteOffset":27552,
			"target":34962
		},
		{
			"buffer":0,
			"byteLength":18368,
			"byteOffset":55104,
			"target":34962
		},
		{
			"buffer":0,
			"byteLength":6888,
			"byteOffset":73472,
			"target":34963
		}
	],
	"buffers":[
		{
			"byteLength":80360,
			"uri":"torus.bin"
		}
	]
}
