# Blender 4.2.1 LTS
# www.blender.org
mtllib papership.mtl
o Cone.001
v -0.001437 -0.269221 0.908864
v 1.284039 0.084515 0.908861
v -1.286913 0.084515 0.908862
v -0.001438 -0.033407 -0.495158
v -0.001437 -0.117063 0.732850
v 0.178154 -0.067643 0.732849
v -0.181028 -0.067643 0.732850
vn 0.2619 -0.9518 -0.1599
vn -0.0000 0.9965 -0.0837
vn -0.2619 -0.9518 -0.1599
vn 0.2038 0.7406 0.6403
vn -0.0000 -0.7565 0.6540
vn 0.2038 -0.7406 -0.6403
vt 0.250000 0.490000
vt 0.250000 0.250000
vt 0.457846 0.130000
vt 0.042154 0.130000
vt 0.542154 0.130000
vt 0.750000 0.490000
vt 0.957846 0.130000
s 0
f 1/1/1 4/2/1 2/3/1
f 2/3/2 4/2/2 3/4/2
f 3/4/3 4/2/3 1/1/3
f 3/5/4 1/6/4 5/6/4 7/5/4
f 2/7/5 3/5/5 7/5/5 6/7/5
f 2/3/6 1/1/6 5/1/6 6/3/6
o Cone.002
v -0.001448 0.349452 -0.032365
v -0.168583 0.045552 0.008512
v 0.165717 0.045568 0.008510
v -0.001437 0.000846 -1.090643
vn -0.8746 0.4606 -0.1517
vn -0.0000 0.1333 0.9911
vn -0.0000 -0.9992 0.0406
vn 0.8745 0.4607 -0.1517
vt 0.250000 0.490000
vt 0.250000 0.250000
vt 0.457846 0.130000
vt 0.750000 0.490000
vt 0.957846 0.130000
vt 0.542154 0.130000
vt 0.042154 0.130000
s 0
f 8/8/7 11/9/7 9/10/7
f 8/11/8 9/12/8 10/13/8
f 9/10/9 11/9/9 10/14/9
f 10/14/10 11/9/10 8/8/10
o Cone.003
v -0.001455 0.582874 1.118310
v -0.303808 -0.176701 1.118305
v 0.300951 -0.176672 1.118305
v -0.001438 0.004621 -1.091137
v -0.001448 0.485812 1.118309
v -0.226530 -0.125672 1.118306
v 0.223673 -0.125651 1.118306
v -0.001431 0.274788 0.826797
v -0.030410 0.196060 0.826797
v 0.027553 0.196063 0.826797
vn -0.9248 0.3681 -0.0963
vn -0.0000 -0.9966 -0.0818
vn 0.9247 0.3682 -0.0964
vn -0.0000 -0.0000 1.0000
vn -0.0000 -0.0000 -1.0000
vn -0.9104 -0.3352 0.2426
vn -0.0000 0.6715 0.7410
vn -0.9104 0.3351 -0.2426
vt 0.250000 0.490000
vt 0.250000 0.250000
vt 0.457846 0.130000
vt 0.042154 0.130000
vt 0.542154 0.130000
vt 0.750000 0.490000
vt 0.957846 0.130000
s 0
f 12/15/11 15/16/11 13/17/11
f 13/17/12 15/16/12 14/18/12
f 14/18/13 15/16/13 12/15/13
f 14/19/14 12/20/14 16/20/14 18/19/14
f 13/21/14 14/19/14 18/19/14 17/21/14
f 13/17/15 12/15/15 16/15/15 17/17/15
f 18/19/16 16/20/16 19/20/16 21/19/16
f 17/21/17 18/19/17 21/19/17 20/21/17
f 17/17/18 16/15/18 19/15/18 20/17/18
